<svg id="Layer_1" data-name="Layer 1" xmlns="http://www.w3.org/2000/svg" viewBox="0 0 396.7 360.5"><defs><style>.cls-1{stroke:#29abe2;stroke-miterlimit:10;stroke-width:5px;}</style></defs><path class="cls-1" d="M350.75,289.39H176.28a50.46,50.46,0,0,1-50.46-50.46V156.28a50.46,50.46,0,0,1,50.46-50.46H350.75A32.32,32.32,0,0,0,383.07,73.5H176.28A82.78,82.78,0,0,0,93.5,156.28v82.65a82.78,82.78,0,0,0,82.78,82.77H383.07a32.31,32.31,0,0,0-32.32-32.31Z" transform="translate(-91 -71)"/><path class="cls-1" d="M227.94,396.68H402.42a50.46,50.46,0,0,0,50.46-50.46V263.57a50.46,50.46,0,0,0-50.46-50.46H227.94a32.3,32.3,0,0,1-32.31-32.31H402.42a82.78,82.78,0,0,1,82.78,82.77v82.65A82.78,82.78,0,0,1,402.42,429H195.63a32.31,32.31,0,0,1,32.31-32.32Z" transform="translate(-91 -71)"/></svg>